<svg width="28" height="28" viewBox="0 0 28 28" fill="none" xmlns="http://www.w3.org/2000/svg">
<path d="M18.6667 3.94888V2.3335M22.9024 5.09113L24.0428 3.94888M24.0538 9.3335H25.6667" stroke="#1E5DBC" stroke-width="2" stroke-linecap="round" stroke-linejoin="round"/>
<path d="M25.6667 14.0002C25.6667 20.4435 20.4433 25.6668 14 25.6668C7.55668 25.6668 2.33334 20.4435 2.33334 14.0002C2.33334 7.55684 7.55668 2.3335 14 2.3335" stroke="#1E5DBC" stroke-width="2" stroke-linecap="round" stroke-linejoin="round"/>
<path d="M14 8.3335C13.4477 8.3335 13 8.78121 13 9.3335C13 9.88578 13.4477 10.3335 14 10.3335V8.3335ZM17.6667 13.9656C17.6667 14.5179 18.1144 14.9656 18.6667 14.9656C19.219 14.9656 19.6667 14.5179 19.6667 13.9656H17.6667ZM14 10.3335H16.3333V8.3335H14V10.3335ZM17.6667 11.6496V13.9656H19.6667V11.6496H17.6667ZM16.3333 10.3335C16.9114 10.3335 17.245 10.3356 17.4812 10.3671C17.6894 10.3949 17.6667 10.4283 17.6205 10.3824L19.0294 8.96295C18.6415 8.57791 18.173 8.4417 17.7458 8.38468C17.3465 8.3314 16.8552 8.3335 16.3333 8.3335V10.3335ZM19.6667 11.6496C19.6667 11.1321 19.6688 10.6427 19.6149 10.2447C19.557 9.81706 19.4184 9.349 19.0294 8.96295L17.6205 10.3824C17.5733 10.3355 17.6055 10.31 17.633 10.5131C17.6645 10.7457 17.6667 11.0752 17.6667 11.6496H19.6667ZM17.5708 9.01603C14.242 12.8394 10.4562 14.3856 7.50547 14.9838C6.02623 15.2836 4.7564 15.3449 3.8622 15.3319C3.41557 15.3254 3.0642 15.3004 2.82916 15.2778C2.7117 15.2665 2.62346 15.2558 2.56711 15.2483C2.53893 15.2446 2.51875 15.2417 2.50688 15.2399C2.50094 15.239 2.49709 15.2384 2.49536 15.2382C2.49449 15.238 2.49416 15.238 2.49436 15.238C2.49446 15.238 2.49469 15.238 2.49506 15.2381C2.49525 15.2381 2.49563 15.2382 2.49572 15.2382C2.49613 15.2383 2.49658 15.2384 2.33334 16.2249C2.1701 17.2115 2.17061 17.2116 2.17116 17.2117C2.17139 17.2117 2.17197 17.2118 2.17243 17.2119C2.17335 17.2121 2.1744 17.2122 2.1756 17.2124C2.17798 17.2128 2.18092 17.2133 2.1844 17.2138C2.19137 17.2149 2.20052 17.2163 2.21181 17.218C2.23439 17.2214 2.26555 17.2259 2.30494 17.2311C2.38372 17.2415 2.4955 17.2549 2.63757 17.2686C2.92161 17.2959 3.3274 17.3243 3.83311 17.3317C4.84359 17.3464 6.25916 17.2771 7.90282 16.9439C11.1979 16.2759 15.4079 14.546 19.0792 10.3293L17.5708 9.01603Z" fill="#1E5DBC"/>
</svg>
