<svg width="28" height="28" viewBox="0 0 28 28" fill="none" xmlns="http://www.w3.org/2000/svg">
<path d="M2.91666 13.9998C2.91666 8.7751 2.91666 6.16274 4.53978 4.53962C6.1629 2.9165 8.77526 2.9165 14 2.9165C19.2247 2.9165 21.8371 2.9165 23.4602 4.53962C25.0833 6.16274 25.0833 8.7751 25.0833 13.9998C25.0833 19.2246 25.0833 21.8369 23.4602 23.4601C21.8371 25.0832 19.2247 25.0832 14 25.0832C8.77526 25.0832 6.1629 25.0832 4.53978 23.4601C2.91666 21.8369 2.91666 19.2246 2.91666 13.9998Z" stroke="#1E5DBC" stroke-width="2"/>
<path d="M2.91666 10.5H25.0833" stroke="#1E5DBC" stroke-width="2" stroke-linejoin="round"/>
<path d="M8.16644 7H8.17692" stroke="#1E5DBC" stroke-width="2" stroke-linecap="round" stroke-linejoin="round"/>
<path d="M12.8331 7H12.8436" stroke="#1E5DBC" stroke-width="2" stroke-linecap="round" stroke-linejoin="round"/>
<path d="M19.8333 19.8333C19.8333 16.6117 17.2217 14 14 14C10.7783 14 8.16666 16.6117 8.16666 19.8333" stroke="#1E5DBC" stroke-width="2" stroke-linecap="round"/>
<path d="M14.8249 17.8418L13.175 19.4917" stroke="#1E5DBC" stroke-width="2" stroke-linecap="round" stroke-linejoin="round"/>
</svg>
