<svg width="19" height="19" viewBox="0 0 19 19" fill="none" xmlns="http://www.w3.org/2000/svg">
<path d="M11.9808 8.47917L11.1558 9.3225C10.4958 9.9825 10.0833 10.5417 10.0833 11.9167H8.25V11.4583C8.25 10.4408 8.6625 9.52417 9.3225 8.86417L10.4592 7.70917C10.7983 7.37917 11 6.92083 11 6.41667C11 5.39917 10.175 4.58333 9.16667 4.58333C8.68044 4.58333 8.21412 4.77649 7.8703 5.1203C7.52649 5.46412 7.33333 5.93044 7.33333 6.41667H5.5C5.5 5.44421 5.88631 4.51158 6.57394 3.82394C7.26158 3.13631 8.19421 2.75 9.16667 2.75C10.1391 2.75 11.0718 3.13631 11.7594 3.82394C12.447 4.51158 12.8333 5.44421 12.8333 6.41667C12.8333 7.22333 12.5033 7.9475 11.9808 8.47917ZM10.0833 15.5833H8.25V13.75H10.0833M9.16667 0C7.96288 0 6.77089 0.237103 5.65873 0.697771C4.54658 1.15844 3.53606 1.83365 2.68485 2.68485C0.965771 4.40394 0 6.73552 0 9.16667C0 11.5978 0.965771 13.9294 2.68485 15.6485C3.53606 16.4997 4.54658 17.1749 5.65873 17.6356C6.77089 18.0962 7.96288 18.3333 9.16667 18.3333C11.5978 18.3333 13.9294 17.3676 15.6485 15.6485C17.3676 13.9294 18.3333 11.5978 18.3333 9.16667C18.3333 4.0975 14.2083 0 9.16667 0Z" fill="#1E5DBC"/>
</svg>
