<svg width="18" height="19" viewBox="0 0 18 19" fill="none" xmlns="http://www.w3.org/2000/svg">
<path d="M4 18.238H14C16.2 18.238 18 16.438 18 14.238V7.73798C18 6.43795 17.4 5.33795 16.4 4.53795L11.4 0.737947C10 -0.262053 8 -0.262053 6.6 0.837947L1.6 4.53795C0.6 5.33795 0 6.43795 0 7.73798V14.238C0 16.438 1.8 18.238 4 18.238ZM2 7.73798C2 7.13795 2.3 6.53794 2.8 6.13794L7.8 2.33795C8.2 2.03795 8.6 1.93795 9 1.93795C9.4 1.93795 9.8 2.03795 10.2 2.33795L15.2 6.13794C15.7 6.53794 16 7.13795 16 7.73798V14.238C16 15.338 15.1 16.238 14 16.238H4C2.9 16.238 2 15.338 2 14.238V7.73798Z" fill="#1E5DBC"/>
<path d="M13 12.2383H5V14.2383H13V12.2383Z" fill="#1E5DBC"/>
</svg>
