<svg width="23" height="18" viewBox="0 0 23 18" fill="none" xmlns="http://www.w3.org/2000/svg">
<g clip-path="url(#clip0_309_66)">
<path d="M21.9762 7.95312H22.5364V15.7815C22.5364 16.7283 21.7414 17.4985 20.7648 17.4985H2.23488C1.25823 17.4985 0.463617 16.7283 0.463617 15.7815V7.95312H1.02383H21.9762ZM20.7667 9.13465C20.7667 8.98469 20.6413 8.8635 20.4866 8.8635C20.3319 8.8635 20.2065 8.98469 20.2065 9.13465V11.8893C20.2065 12.0392 20.3319 12.1604 20.4866 12.1604C20.6413 12.1604 20.7667 12.0392 20.7667 11.8893V9.13465ZM20.7667 13.1026C20.7667 12.9527 20.6413 12.8315 20.4866 12.8315C20.3319 12.8315 20.2065 12.9527 20.2065 13.1026V13.8191C20.2065 13.9691 20.3319 14.0903 20.4866 14.0903C20.6413 14.0903 20.7667 13.9691 20.7667 13.8191V13.1026Z" fill="#1E5DBC"/>
<path d="M2.23488 3.29477H6.86892V2.57374C6.86892 1.43008 7.82878 0.5 9.00858 0.5H13.452C14.6314 0.5 15.5912 1.43008 15.5912 2.57374V3.29477H20.7648C21.7414 3.29477 22.5364 4.06504 22.5364 5.01178V7.4112H21.9762H1.02383H0.463617V5.01178C0.463617 4.06505 1.25822 3.29477 2.23488 3.29477ZM15.031 2.57374C15.031 1.72924 14.3228 1.04229 13.452 1.04229H9.00858C8.13779 1.04229 7.42913 1.72924 7.42913 2.57374V3.29477H15.031V2.57374Z" fill="#1E5DBC"/>
</g>
<defs>
<clipPath id="clip0_309_66">
<rect width="23" height="18" fill="white" transform="matrix(-1 0 0 1 23 0)"/>
</clipPath>
</defs>
</svg>
