<svg width="26" height="24" viewBox="0 0 26 24" fill="none" xmlns="http://www.w3.org/2000/svg">
<path d="M12.9921 14C16.027 14 18.4874 11.3137 18.4874 8C18.4874 4.68629 16.027 2 12.9921 2C9.95714 2 7.49683 4.68629 7.49683 8C7.49683 11.3137 9.95714 14 12.9921 14Z" fill="#B9C0C6"/>
<path d="M23.7628 19.1011C22.7736 17.3011 20.9052 15.8011 18.4873 14.9011C17.8279 14.7011 17.0586 14.7011 16.509 15.0011C15.41 15.6011 14.3109 15.9011 12.9921 15.9011C11.6732 15.9011 10.5742 15.6011 9.4751 15.0011C8.92557 14.8011 8.15624 14.7011 7.4968 15.0011C5.07889 15.9011 3.2105 17.4011 2.22135 19.2011C1.45202 20.5011 2.66097 22.0011 4.30955 22.0011H21.6746C23.3232 22.0011 24.5321 20.5011 23.7628 19.1011Z" fill="#5A6B78"/>
</svg>
