<svg width="22" height="22" viewBox="0 0 22 22" fill="none" xmlns="http://www.w3.org/2000/svg">
<g clip-path="url(#clip0_287_158)">
<circle cx="11" cy="11" r="11" fill="#B9C0C6"/>
<path d="M17.9854 10.9278C17.9727 10.9008 17.6725 10.2756 16.5706 9.89271C16.487 9.18967 15.882 5.33408 12.6655 4.26086C12.5686 3.74615 12.2171 3 11.3807 3H10.6196C9.78289 3 9.43139 3.74615 9.33443 4.26086C6.11802 5.33408 5.51297 9.18967 5.42941 9.89271C4.32747 10.2756 4.0273 10.9008 4.01454 10.9278C3.99026 10.9807 3.99722 11.0418 4.02924 11.0895L4.02758 11.0907C4.04928 11.1229 4.48664 11.7515 5.48796 12.0851C5.55523 12.733 6.05734 16.1545 9.14044 16.8454C9.20861 17.0396 9.31492 17.2483 9.48851 17.4361C9.83437 17.8102 10.3428 18 11 18C11.6573 18 12.1657 17.8102 12.5115 17.4361C12.6851 17.2483 12.7914 17.0396 12.8596 16.8454C15.9427 16.1545 16.4448 12.733 16.5121 12.0851C17.5134 11.7515 17.9508 11.1229 17.9725 11.0907L17.9708 11.0895C18.0028 11.0417 18.0097 10.9807 17.9854 10.9278ZM16.4133 11.7739C16.059 11.3252 15.6084 10.9926 15.2145 10.7619C15.9879 10.852 16.7598 10.9685 17.5302 11.1082C17.3334 11.3008 16.9696 11.5869 16.4133 11.7739ZM15.808 11.9171C15.1279 11.2681 14.3086 10.8612 13.5744 10.6079C13.8013 10.624 14.0281 10.6436 14.2549 10.664C14.4251 10.7253 15.41 11.1044 16.0747 11.8672C15.9894 11.8865 15.9007 11.9033 15.808 11.9171ZM12.7807 16.0043C11.599 16.0725 10.4009 16.0725 9.21923 16.0043C6.85669 15.1402 6.46001 12.6195 6.40667 12.1537C7.81467 10.8111 9.93369 10.5598 10.3182 10.5245C10.7727 10.516 11.2273 10.516 11.6818 10.5245C12.0665 10.5598 14.1853 10.8111 15.5932 12.1539C15.5405 12.6195 15.1479 15.1386 12.7807 16.0043ZM6.19194 11.9171C6.09925 11.9033 6.01059 11.8865 5.92522 11.8673C6.58987 11.1044 7.57483 10.7253 7.74501 10.664C7.97181 10.6436 8.19863 10.6241 8.42555 10.608C7.6913 10.8613 6.87196 11.2681 6.19194 11.9171ZM4.46977 11.1082C5.2401 10.9685 6.01209 10.852 6.78541 10.7619C6.39156 10.9926 5.9409 11.3252 5.58667 11.7739C5.0303 11.5869 4.66659 11.3008 4.46977 11.1082ZM10.6196 3.32634H11.3807C11.9722 3.32634 12.2146 3.81896 12.3117 4.15725C11.9128 4.05566 11.4791 3.993 11.0031 3.98318H10.9969C10.5205 3.99303 10.0864 4.05579 9.68729 4.15754C9.78343 3.81932 10.0249 3.32634 10.6196 3.32634ZM5.81944 12.1774C5.908 12.1982 6.00025 12.2162 6.09613 12.2317C6.17123 12.8263 6.63155 15.3419 9.02741 16.275C9.02983 16.329 9.03677 16.3985 9.04909 16.4803C6.47191 15.7915 5.92242 12.98 5.81944 12.1774ZM12.9509 16.4803C12.9632 16.3985 12.9701 16.329 12.9726 16.275C15.3684 15.3419 15.8288 12.8263 15.9038 12.2317C15.9997 12.2162 16.092 12.1982 16.1805 12.1774C16.0776 12.98 15.5281 15.7915 12.9509 16.4803ZM12.8244 5.4793C12.8661 5.40026 12.9621 5.37014 13.0398 5.41253C13.0799 5.43469 14.0349 5.968 14.7085 7.10224C14.7542 7.17919 14.7306 7.27961 14.6554 7.32644C14.6296 7.34269 14.601 7.35033 14.5727 7.35033C14.5193 7.35033 14.4668 7.32246 14.4369 7.2721C13.8098 6.2169 12.8984 5.70523 12.8893 5.70014C12.812 5.65742 12.7831 5.55867 12.8244 5.4793Z" fill="#5A6B78"/>
</g>
<defs>
<clipPath id="clip0_287_158">
<rect width="22" height="22" fill="white"/>
</clipPath>
</defs>
</svg>
