<svg width="17" height="16" viewBox="0 0 17 16" fill="none" xmlns="http://www.w3.org/2000/svg">
<path d="M8.73584 0C9.79671 0 10.8141 0.421427 11.5643 1.17157C12.3144 1.92172 12.7358 2.93913 12.7358 4C12.7358 5.06087 12.3144 6.07828 11.5643 6.82843C10.8141 7.57857 9.79671 8 8.73584 8C7.67497 8 6.65756 7.57857 5.90741 6.82843C5.15727 6.07828 4.73584 5.06087 4.73584 4C4.73584 2.93913 5.15727 1.92172 5.90741 1.17157C6.65756 0.421427 7.67497 0 8.73584 0ZM8.73584 10C13.1558 10 16.7358 11.79 16.7358 14V16H0.73584V14C0.73584 11.79 4.31584 10 8.73584 10Z" fill="#1E5DBC"/>
</svg>
