<svg width="22" height="20" viewBox="0 0 22 20" fill="none" xmlns="http://www.w3.org/2000/svg">
<path d="M0.999873 8.96C0.499873 8.68 0.349873 8.07 0.629873 7.59L2.12987 5C2.23987 4.8 2.40987 4.66 2.59987 4.58L10.4299 0.18C10.5899 0.0600001 10.7899 0 10.9999 0C11.2099 0 11.4099 0.0600001 11.5699 0.18L19.4699 4.62C19.6599 4.72 19.8199 4.88 19.9099 5.08L21.3599 7.6C21.6399 8.08 21.4699 8.69 20.9999 8.96L19.9999 9.54V14.5C19.9999 14.88 19.7899 15.21 19.4699 15.38L11.5699 19.82C11.4099 19.94 11.2099 20 10.9999 20C10.7899 20 10.5899 19.94 10.4299 19.82L2.52987 15.38C2.20987 15.21 1.99987 14.88 1.99987 14.5V8.96C1.69987 9.13 1.31987 9.14 0.999873 8.96ZM10.9999 2.15V8.85L16.9599 5.5L10.9999 2.15ZM3.99987 13.91L9.99987 17.29V10.58L3.99987 7.21V13.91ZM17.9999 13.91V10.69L12.9999 13.59C12.6699 13.77 12.2999 13.76 11.9999 13.6V17.29L17.9999 13.91ZM12.8499 11.36L19.1299 7.73L18.5499 6.72L12.2699 10.35L12.8499 11.36Z" fill="#1E5DBC"/>
</svg>
