<svg width="24" height="24" viewBox="0 0 24 24" fill="none" xmlns="http://www.w3.org/2000/svg">
<rect width="24" height="24" rx="3" fill="#1E5DBC"/>
<path d="M6.27306 7.15207C6.60778 7.15207 6.87912 6.88073 6.87912 6.54601C6.87912 6.21129 6.60778 5.93994 6.27306 5.93994C5.93834 5.93994 5.66699 6.21129 5.66699 6.54601C5.66699 6.88073 5.93834 7.15207 6.27306 7.15207Z" stroke="white" stroke-width="2" stroke-miterlimit="10" stroke-linecap="round" stroke-linejoin="round"/>
<path d="M6.27306 12.6067C6.60778 12.6067 6.87912 12.3353 6.87912 12.0006C6.87912 11.6659 6.60778 11.3945 6.27306 11.3945C5.93834 11.3945 5.66699 11.6659 5.66699 12.0006C5.66699 12.3353 5.93834 12.6067 6.27306 12.6067Z" stroke="white" stroke-width="2" stroke-miterlimit="10" stroke-linecap="round" stroke-linejoin="round"/>
<path d="M6.27306 18.0613C6.60778 18.0613 6.87912 17.7899 6.87912 17.4552C6.87912 17.1205 6.60778 16.8491 6.27306 16.8491C5.93834 16.8491 5.66699 17.1205 5.66699 17.4552C5.66699 17.7899 5.93834 18.0613 6.27306 18.0613Z" stroke="white" stroke-width="2" stroke-miterlimit="10" stroke-linecap="round" stroke-linejoin="round"/>
<path d="M10.5146 6.54639H18.9997" stroke="white" stroke-width="2" stroke-miterlimit="10" stroke-linecap="round" stroke-linejoin="round"/>
<path d="M10.5146 12.001H18.9997" stroke="white" stroke-width="2" stroke-miterlimit="10" stroke-linecap="round" stroke-linejoin="round"/>
<path d="M10.5146 17.4556H18.9997" stroke="white" stroke-width="2" stroke-miterlimit="10" stroke-linecap="round" stroke-linejoin="round"/>
</svg>
