<svg width="26" height="24" viewBox="0 0 26 24" fill="none" xmlns="http://www.w3.org/2000/svg">
<path d="M7.64427 10.6177L8.65159 10.2623C8.9236 10.7158 9.27365 11.1255 9.68979 11.4739L9.2032 12.491L11.3885 13.5357L11.874 12.5186C12.3958 12.621 12.9214 12.6378 13.4346 12.5701L13.8041 13.618L15.6307 12.9727L15.2655 11.941C15.7337 11.6662 16.152 11.3081 16.5107 10.8805L17.5267 11.3666L18.5687 9.18832L17.5516 8.70173C17.6573 8.16745 17.6736 7.62722 17.6004 7.1027L18.6072 6.74778L17.9624 4.92117L16.9551 5.27609C16.6847 4.82417 16.3352 4.41615 15.9217 4.06828L16.4083 3.05012L14.2132 2L13.7267 3.01924C13.1843 2.91358 12.6343 2.89786 12.1027 2.97643L11.7613 2.00921L9.93363 2.65457L10.281 3.63804C9.84097 3.90518 9.44216 4.24709 9.10188 4.65241L8.08372 4.16581L7.03522 6.35818L8.05392 6.84477C7.94934 7.37579 7.93417 7.91332 8.00732 8.43567L7 8.79059L7.64427 10.6177ZM12.8033 6.08021C13.7012 6.08021 14.4289 6.80793 14.4289 7.70579C14.4289 8.60365 13.7012 9.33137 12.8033 9.33137C11.9055 9.33137 11.1777 8.60365 11.1777 7.70579C11.1777 6.80793 11.9055 6.08021 12.8033 6.08021Z" fill="#B9C0C6"/>
<path d="M23.7787 19.1011C22.7895 17.3011 20.9211 15.8011 18.5032 14.9011C17.8438 14.7011 17.0745 14.7011 16.5249 15.0011C15.4259 15.6011 14.3268 15.9011 13.008 15.9011C11.6891 15.9011 10.5901 15.6011 9.49097 15.0011C8.94144 14.8011 8.17211 14.7011 7.51267 15.0011C5.09476 15.9011 3.22637 17.4011 2.23722 19.2011C1.46789 20.5011 2.67684 22.0011 4.32542 22.0011H21.6905C23.3391 22.0011 24.548 20.5011 23.7787 19.1011Z" fill="#5A6B78"/>
</svg>
