<svg width="22" height="22" viewBox="0 0 22 22" fill="none" xmlns="http://www.w3.org/2000/svg">
<g clip-path="url(#clip0_301_165)">
<path d="M11 22C17.0751 22 22 17.0751 22 11C22 4.92487 17.0751 0 11 0C4.92487 0 0 4.92487 0 11C0 17.0751 4.92487 22 11 22Z" fill="#1E5DBC"/>
<path d="M10.9947 11.8016C12.9232 11.8016 14.4865 10.0552 14.4865 7.9008C14.4865 5.74645 12.9232 4 10.9947 4C9.06627 4 7.50293 5.74645 7.50293 7.9008C7.50293 10.0552 9.06627 11.8016 10.9947 11.8016Z" fill="white"/>
<path d="M17.8387 15.1181C17.2102 13.9478 16.023 12.9726 14.4866 12.3875C14.0675 12.2575 13.5787 12.2575 13.2295 12.4525C12.5311 12.8426 11.8328 13.0376 10.9947 13.0376C10.1567 13.0376 9.45831 12.8426 8.75994 12.4525C8.41076 12.3225 7.9219 12.2575 7.50288 12.4525C5.96648 13.0376 4.77926 14.0128 4.15073 15.1831C3.66188 16.0282 4.43008 17.0034 5.47763 17.0034H16.5118C17.5594 17.0034 18.3276 16.0282 17.8387 15.1181Z" fill="white"/>
</g>
<defs>
<clipPath id="clip0_301_165">
<rect width="22" height="22" fill="white"/>
</clipPath>
</defs>
</svg>
