<svg width="26" height="24" viewBox="0 0 26 24" fill="none" xmlns="http://www.w3.org/2000/svg">
<path d="M13.008 14C16.0429 14 18.5033 11.3137 18.5033 8C18.5033 4.68629 16.0429 2 13.008 2C9.97301 2 7.5127 4.68629 7.5127 8C7.5127 11.3137 9.97301 14 13.008 14Z" fill="#1E5DBC"/>
<path d="M23.7787 19.1011C22.7895 17.3011 20.9211 15.8011 18.5032 14.9011C17.8438 14.7011 17.0745 14.7011 16.5249 15.0011C15.4259 15.6011 14.3268 15.9011 13.008 15.9011C11.6891 15.9011 10.5901 15.6011 9.49097 15.0011C8.94144 14.8011 8.17211 14.7011 7.51267 15.0011C5.09476 15.9011 3.22637 17.4011 2.23722 19.2011C1.46789 20.5011 2.67684 22.0011 4.32542 22.0011H21.6905C23.3391 22.0011 24.548 20.5011 23.7787 19.1011Z" fill="#1E5DBC"/>
</svg>
